<mxfile modified="2021-07-01T21:22:33.361Z" host="app.diagrams.net" agent="5.0 (Windows NT 10.0; Win64; x64) AppleWebKit/537.36 (KHTML, like Gecko) Chrome/91.0.4472.124 Safari/537.36" etag="doFeY5EnZ36smRBegh3J" version="14.8.3" type="github">
  <diagram id="Ht1M8jgEwFfnCIfOTk4-" name="Page-1">
    <mxGraphModel dx="1422" dy="794" grid="1" gridSize="10" guides="1" tooltips="1" connect="1" arrows="1" fold="1" page="1" pageScale="1" pageWidth="1169" pageHeight="827" math="0" shadow="0">
      <root>
        <mxCell id="0" />
        <mxCell id="1" parent="0" />
        <mxCell id="_vaczL3eXzZ1pqNhhqeP-14" value="" style="edgeStyle=orthogonalEdgeStyle;rounded=0;orthogonalLoop=1;jettySize=auto;html=1;strokeWidth=4;" edge="1" parent="1">
          <mxGeometry relative="1" as="geometry">
            <mxPoint x="639.5" y="400" as="sourcePoint" />
            <mxPoint x="639.5" y="520" as="targetPoint" />
            <Array as="points">
              <mxPoint x="639.5" y="490" />
              <mxPoint x="639.5" y="490" />
            </Array>
          </mxGeometry>
        </mxCell>
        <mxCell id="_vaczL3eXzZ1pqNhhqeP-6" value="" style="points=[[0,0,0],[0.25,0,0],[0.5,0,0],[0.75,0,0],[1,0,0],[0,1,0],[0.25,1,0],[0.5,1,0],[0.75,1,0],[1,1,0],[0,0.25,0],[0,0.5,0],[0,0.75,0],[1,0.25,0],[1,0.5,0],[1,0.75,0]];outlineConnect=0;fontColor=#232F3E;gradientColor=#60A337;gradientDirection=north;fillColor=#277116;strokeColor=#ffffff;dashed=0;verticalLabelPosition=bottom;verticalAlign=top;align=center;html=1;fontSize=12;fontStyle=0;aspect=fixed;shape=mxgraph.aws4.resourceIcon;resIcon=mxgraph.aws4.s3;" vertex="1" parent="1">
          <mxGeometry x="600" y="560" width="80" height="80" as="geometry" />
        </mxCell>
        <mxCell id="_vaczL3eXzZ1pqNhhqeP-7" value="users" style="outlineConnect=0;strokeColor=#9673a6;dashed=0;verticalLabelPosition=bottom;verticalAlign=top;align=center;html=1;fontSize=12;fontStyle=1;aspect=fixed;shape=mxgraph.aws4.illustration_users;pointerEvents=1;strokeWidth=7;shadow=0;sketch=0;fillColor=#D88FE7;horizontal=1;" vertex="1" parent="1">
          <mxGeometry x="40" y="280" width="81" height="81" as="geometry" />
        </mxCell>
        <mxCell id="_vaczL3eXzZ1pqNhhqeP-9" value="" style="edgeStyle=orthogonalEdgeStyle;html=1;endArrow=openThin;elbow=vertical;startArrow=none;endFill=0;strokeColor=#545B64;rounded=0;strokeWidth=4;" edge="1" parent="1">
          <mxGeometry width="100" relative="1" as="geometry">
            <mxPoint x="160" y="320.7" as="sourcePoint" />
            <mxPoint x="280" y="320.7" as="targetPoint" />
          </mxGeometry>
        </mxCell>
        <mxCell id="_vaczL3eXzZ1pqNhhqeP-10" value="" style="dashed=0;outlineConnect=0;html=1;align=center;labelPosition=center;verticalLabelPosition=bottom;verticalAlign=top;shape=mxgraph.webicons.github;gradientColor=#DFDEDE;shadow=0;sketch=0;strokeWidth=7;fontStyle=1" vertex="1" parent="1">
          <mxGeometry x="320" y="280" width="80" height="82.4" as="geometry" />
        </mxCell>
        <mxCell id="_vaczL3eXzZ1pqNhhqeP-11" value="" style="edgeStyle=orthogonalEdgeStyle;html=1;endArrow=openThin;elbow=vertical;startArrow=none;endFill=0;strokeColor=#545B64;rounded=0;strokeWidth=4;" edge="1" parent="1">
          <mxGeometry width="100" relative="1" as="geometry">
            <mxPoint x="440" y="320.7" as="sourcePoint" />
            <mxPoint x="560" y="320.7" as="targetPoint" />
            <Array as="points">
              <mxPoint x="500" y="320.7" />
              <mxPoint x="500" y="320.7" />
            </Array>
          </mxGeometry>
        </mxCell>
        <mxCell id="_vaczL3eXzZ1pqNhhqeP-12" value="" style="points=[[0,0,0],[0.25,0,0],[0.5,0,0],[0.75,0,0],[1,0,0],[0,1,0],[0.25,1,0],[0.5,1,0],[0.75,1,0],[1,1,0],[0,0.25,0],[0,0.5,0],[0,0.75,0],[1,0.25,0],[1,0.5,0],[1,0.75,0]];outlineConnect=0;fontColor=#232F3E;gradientColor=#4D72F3;gradientDirection=north;fillColor=#3334B9;strokeColor=#ffffff;dashed=0;verticalLabelPosition=bottom;verticalAlign=top;align=center;html=1;fontSize=12;fontStyle=0;aspect=fixed;shape=mxgraph.aws4.resourceIcon;resIcon=mxgraph.aws4.codepipeline;shadow=0;sketch=0;" vertex="1" parent="1">
          <mxGeometry x="600" y="280" width="80" height="80" as="geometry" />
        </mxCell>
        <mxCell id="_vaczL3eXzZ1pqNhhqeP-15" value="" style="edgeStyle=orthogonalEdgeStyle;html=1;endArrow=openThin;elbow=vertical;startArrow=none;endFill=0;strokeColor=#545B64;rounded=0;strokeWidth=4;" edge="1" parent="1">
          <mxGeometry width="100" relative="1" as="geometry">
            <mxPoint x="720" y="320.7" as="sourcePoint" />
            <mxPoint x="840" y="320.7" as="targetPoint" />
            <Array as="points">
              <mxPoint x="780" y="320.69999999999993" />
              <mxPoint x="780" y="320.69999999999993" />
            </Array>
          </mxGeometry>
        </mxCell>
        <mxCell id="_vaczL3eXzZ1pqNhhqeP-16" value="" style="points=[[0,0,0],[0.25,0,0],[0.5,0,0],[0.75,0,0],[1,0,0],[0,1,0],[0.25,1,0],[0.5,1,0],[0.75,1,0],[1,1,0],[0,0.25,0],[0,0.5,0],[0,0.75,0],[1,0.25,0],[1,0.5,0],[1,0.75,0]];outlineConnect=0;fontColor=#232F3E;gradientColor=#4D72F3;gradientDirection=north;fillColor=#3334B9;strokeColor=#ffffff;dashed=0;verticalLabelPosition=bottom;verticalAlign=top;align=center;html=1;fontSize=12;fontStyle=0;aspect=fixed;shape=mxgraph.aws4.resourceIcon;resIcon=mxgraph.aws4.codedeploy;shadow=0;sketch=0;" vertex="1" parent="1">
          <mxGeometry x="880" y="280" width="80" height="80" as="geometry" />
        </mxCell>
      </root>
    </mxGraphModel>
  </diagram>
</mxfile>
